# xmcd
#
# Track frame offsets:
#	150
#	22841
#	44803
#	64613
#	86482
#	108887
#	138871
#	158526
#	181098
#	202811
#	225028
#	251116
#	283792
#
# Disc length: 4098 seconds
#
# Revision: 1689679749
# Processed by: cddbd v1.5.2PL0 Copyright (c) Steve Scherf et al.
# Submitted via: EZCDAudioConverter 8.0.2.1
#
DISCID=9a10000d
DTITLE=Trần Thu Hà - Tinh Ca Qua The Ky
DYEAR=2007
DGENRE=World Pop
TTITLE0=Trần Thu Hà - Kiếp dã tràng
TTITLE1=Trần Thu Hà - Trở về bến mơ
TTITLE2=Trần Thu Hà - Đừng xa em đêm nay
TTITLE3=Trần Thu Hà - Tôi với trời bơ vơ
TTITLE4=Trần Thu Hà - Vết lăn trầm
TTITLE5=Trần Thu Hà - Những con đường tình yêu
TTITLE6=Trần Thu Hà - Quê hương trong nỗi nhớ
TTITLE7=Trần Thu Hà - Rồi như đá ngây ngô
TTITLE8=Trần Thu Hà and Khánh Ly - Giọt lệ thiên thu
TTITLE9=Trần Thu Hà - Tình nghệ sỹ
TTITLE10=Trần Thu Hà - Gửi người em gái
TTITLE11=Trần Thu Hà - Cô đơn
TTITLE12=Trần Thu Hà and Bằng Kiều - Đường xa ướt mưa
EXTD=
EXTT0=
EXTT1=
EXTT2=
EXTT3=
EXTT4=
EXTT5=
EXTT6=
EXTT7=
EXTT8=
EXTT9=
EXTT10=
EXTT11=
EXTT12=
PLAYORDER=
